<?xml version="1.0" encoding="UTF-8" standalone="no"?>
<svg
   width="1200pt"
   height="1200pt"
   version="1.1"
   viewBox="0 0 1200 1200"
   id="svg63"
   xmlns="http://www.w3.org/2000/svg"
   xmlns:svg="http://www.w3.org/2000/svg">
  <defs
     id="defs67" />
  <g
     id="g61">
    <path
       d="m836.28 186.84c-42 91.922-192.96 139.2-338.76 145.44v402.24c138.36 6.1211 295.44 50.52 338.76 145.44 3.8594 9.6211 11.969 16.902 21.949 19.703 9.9844 2.7969 20.699 0.80078 29-5.4102 8.2969-6.2109 13.238-15.93 13.371-26.293v-668.52c0.054688-10.438-4.7773-20.297-13.059-26.648-8.2773-6.3516-19.055-8.4609-29.117-5.7031-10.066 2.7578-18.258 10.066-22.145 19.75z"
       id="path47" />
    <path
       d="m63.359 399.84c-8.8477 0-17.332 3.5156-23.59 9.7695-6.2539 6.2578-9.7695 14.742-9.7695 23.59v200.4c0.03125 8.8359 3.5547 17.305 9.8047 23.551 6.25 6.25 14.719 9.7773 23.555 9.8086h36c-0.71875-9.6016-0.71875-257.64 0-267.12z"
       id="path49" />
    <path
       d="m442.92 800.52h-201.48l18 204c0.71875 8.3203 4.5352 16.066 10.688 21.707 6.1562 5.6445 14.203 8.7734 22.551 8.7734h132c9.3008-0.042969 18.168-3.9375 24.492-10.762 6.3203-6.8242 9.5312-15.961 8.8672-25.238l-15.84-195.72z"
       id="path51" />
    <path
       d="m1136.6 499.92h-66.84c-11.465 0.68359-21.777 7.1992-27.32 17.262-5.543 10.059-5.543 22.254 0 32.312 5.543 10.062 15.855 16.578 27.32 17.266h66.84c11.465-0.6875 21.777-7.2031 27.32-17.266 5.543-10.059 5.543-22.254 0-32.312-5.543-10.062-15.855-16.578-27.32-17.262z"
       id="path53" />
    <path
       d="m1017.5 361.92 57.84-33.359v-0.003906c10.332-5.957 16.699-16.977 16.707-28.902 0.003906-11.93-6.3555-22.953-16.684-28.922-10.324-5.9688-23.051-5.9727-33.383-0.015625l-57.961 33.359c-10.332 5.9609-16.699 16.98-16.707 28.906-0.003907 11.93 6.3555 22.953 16.68 28.922 10.328 5.9688 23.055 5.9727 33.387 0.015625z"
       id="path55" />
    <path
       d="m1075.3 738.24-57.84-33.359c-10.332-5.9805-23.07-5.9922-33.414-0.035156-10.348 5.957-16.73 16.98-16.742 28.918s6.3438 22.977 16.676 28.957l57.84 33.359c10.332 5.9609 23.059 5.957 33.387-0.011719 10.324-5.9688 16.684-16.992 16.68-28.922-0.007812-11.926-6.375-22.945-16.707-28.906z"
       id="path57" />
    <path
       d="m430.8 733.8v-400.8h-187.08c-20.645 0.03125-40.434 8.2461-55.031 22.844-14.602 14.602-22.816 34.391-22.848 55.035v244.92c0 20.664 8.2031 40.488 22.805 55.109 14.602 14.625 34.41 22.859 55.074 22.891z"
       id="path59" />
  </g>
</svg>
