<?xml version="1.0" encoding="UTF-8" standalone="no"?>
<svg
   width="800.00238pt"
   height="900pt"
   version="1.1"
   viewBox="0 0 800.00238 900"
   id="svg59"
   xmlns="http://www.w3.org/2000/svg"
   xmlns:svg="http://www.w3.org/2000/svg">
  <defs
     id="defs63" />
  <g
     id="g57"
     transform="translate(-199.9988,-150)">
    <path
       d="m 400,300 c 0.0117,-13.258 5.2852,-25.965 14.66,-35.34 9.3748,-9.375 22.082,-14.648 35.34,-14.66 17.863,0 34.371,-9.5312 43.301,-25 8.9336,-15.469 8.9336,-34.531 0,-50 C 484.3713,159.531 467.863,150 450,150 410.23,150.043 372.102,165.859 343.98,193.98 315.859,222.101 300.042,260.23 300,300 v 200 c 0,20.949 -34.715,50 -50,50 -17.863,0 -34.371,9.5312 -43.301,25 -8.9336,15.469 -8.9336,34.531 0,50 8.9297,15.469 25.438,25 43.301,25 15.285,0 50,29.051 50,50 v 200 c 0.043,39.77 15.859,77.898 43.98,106.02 28.121,28.121 66.25,43.938 106.02,43.98 17.863,0 34.371,-9.5312 43.301,-25 8.9336,-15.469 8.9336,-34.531 0,-50 C 484.3713,959.531 467.863,950 450,950 436.742,949.98828 424.035,944.7148 414.66,935.34 405.285,925.9652 400.012,913.258 400,900 V 700 C 398.4766,662.035 382.215,626.164 354.664,600 382.215,573.836 398.476,537.965 400,500 Z"
       id="path53" />
    <path
       d="m 950,550 c -15.285,0 -50,-29.051 -50,-50 V 300 C 899.95703,260.23 884.141,222.102 856.02,193.98 827.899,165.859 789.77,150.042 750,150 c -17.863,0 -34.371,9.5312 -43.301,25 -8.9336,15.469 -8.9336,34.531 0,50 8.9297,15.469 25.438,25 43.301,25 13.258,0.0117 25.965,5.2852 35.34,14.66 9.375,9.3748 14.648,22.082 14.66,35.34 v 200 c 1.5234,37.965 17.785,73.836 45.336,100 -27.551,26.164 -43.812,62.035 -45.336,100 v 200 c -0.0117,13.258 -5.2852,25.965 -14.66,35.34 -9.3748,9.375 -22.082,14.648 -35.34,14.66 -17.863,0 -34.371,9.5312 -43.301,25 -8.9336,15.469 -8.9336,34.531 0,50 8.9297,15.469 25.438,25 43.301,25 39.77,-0.043 77.898,-15.859 106.02,-43.98 C 884.141,977.899 899.958,939.77 900,900 V 700 c 0,-20.949 34.715,-50 50,-50 17.863,0 34.371,-9.5312 43.301,-25 8.9336,-15.469 8.9336,-34.531 0,-50 C 984.3713,559.531 967.863,550 950,550 Z"
       id="path55" />
  </g>
</svg>
