<?xml version="1.0" encoding="UTF-8" standalone="no"?>
<svg
   width="1200pt"
   height="1200pt"
   version="1.1"
   viewBox="0 0 1200 1200"
   id="svg314"
   xmlns="http://www.w3.org/2000/svg"
   xmlns:svg="http://www.w3.org/2000/svg">
  <defs
     id="defs318" />
  <g
     id="g312"
     transform="matrix(1,0,0,1.3204347,0,-192.42693)">
    <path
       d="m 1200,690.72 v -0.96094 0.004 c -0.3281,-4.0703 -1.0938,-8.0938 -2.2812,-12 -15.598,-72 -69.719,-137.04 -141.72,-155.52 -35.523,-8.625 -71.613,-14.719 -108,-18.238 -27.758,-1.4141 -53.191,-15.934 -68.52,-39.121 -63.961,-91.441 -153.24,-144 -262.68,-163.8 -102.63,-16.621 -207.29,-16.375 -309.84,0.72266 -29.293,3.9258 -57.34,14.332 -82.105,30.461 -24.766,16.129 -45.621,37.574 -61.055,62.777 -13.078,20.281 -23.281,42.719 -37.441,62.16 -13.312,21.215 -29.922,40.172 -49.199,56.16 -34.273,22.152 -58.16,57.199 -66.238,97.199 -4.9219,26.52 -8.1602,53.281 -10.922,80.16 h 0.60156 c -0.17969,2.7188 -0.17969,5.4453 0,8.1602 v 60 c 0.15625,6.2617 2.7539,12.215 7.2383,16.586 4.4805,4.3711 10.496,6.8164 16.762,6.8164 h 90 c 4.9961,-48.004 33.539,-90.383 76.145,-113.05 42.609,-22.672 93.699,-22.672 136.3,0 42.609,22.672 71.152,65.051 76.148,113.05 h 429.24 v -5.3984 -0.004 c 1.4609,-50.859 29.441,-97.246 73.746,-122.26 44.309,-25.02 98.47704,-25.02 142.79004,0 44.305,25.016 72.285,71.402 73.746,122.26 v 5.3984 h 54.359 v 0.004 c 6.2656,0 12.281,-2.4453 16.766,-6.8164 4.4805,-4.3711 7.0781,-10.324 7.2344,-16.586 v -65.039 c 0.059,-1.0391 0.059,-2.082 0,-3.1211 z M 472.8,529.32 c -72,0 -142.08,1.8008 -212.04,-0.83984 -34.441,-1.1992 -42.48,-19.441 -29.762,-52.078 42.238,-108 110.4,-143.28 241.8,-123.12 z m 309.72,0 c -78.121,1.1992 -156,0 -238.68,0 V 355.08 c 90.121,-16.68 225.36,52.801 264,135.12 11.762,25.801 4.9219,39.242 -25.32,39.723 z"
       id="path306" />
    <path
       d="m 257.64,684 c -30.281,0.0625 -59.293,12.16 -80.652,33.625 -21.359,21.461 -33.312,50.535 -33.227,80.816 0.0859,30.277 12.199,59.285 33.68,80.629 21.48,21.344 50.559,33.273 80.84,33.168 30.281,-0.105 59.277,-12.242 80.605,-33.734 21.328,-21.496 33.242,-50.582 33.113,-80.863 -0.0937,-30.234 -12.199,-59.195 -33.645,-80.504 -21.445,-21.312 -50.48,-33.23 -80.715,-33.137 z m 0,164.76 c -13.469,0 -26.387,-5.3555 -35.906,-14.883 -9.5234,-9.5273 -14.863,-22.449 -14.855,-35.918 0.0117,-13.469 5.375,-26.383 14.91,-35.895 9.5352,-9.5156 22.461,-14.848 35.93,-14.828 13.473,0.0234 26.379,5.3984 35.887,14.941 9.5039,9.543 14.828,22.473 14.793,35.941 -0.125,13.367 -5.5312,26.141 -15.043,35.539 -9.5078,9.3984 -22.348,14.652 -35.715,14.621 z"
       id="path308" />
    <path
       d="m 1092,777.12 c 0,-30.273 -12.027,-59.309 -33.438,-80.711 -21.411,-21.402 -50.449,-33.422 -80.723,-33.41 -30.273,0.0117 -59.301,12.051 -80.699,33.469 -21.395,21.418 -33.402,50.457 -33.379,80.73 0.0195,30.273 12.07,59.297 33.492,80.688 21.426,21.387 50.473,33.387 80.746,33.352 30.254,0 59.27,-12.027 80.652,-33.43 21.383,-21.406 33.379,-50.434 33.348,-80.688 z m -164.76,0 c 0.0352,-13.492 5.4375,-26.414 15.012,-35.914 9.5781,-9.5 22.543,-14.797 36.031,-14.723 13.492,0.0742 26.395,5.5156 35.867,15.125 9.4688,9.6055 14.727,22.586 14.609,36.074 -0.1172,13.492 -5.5977,26.379 -15.234,35.82 -9.6367,9.4375 -22.633,14.656 -36.125,14.496 -13.473,-0.0312 -26.383,-5.4062 -35.898,-14.945 -9.5156,-9.5391 -14.859,-22.461 -14.859,-35.934 z"
       id="path310" />
  </g>
</svg>
