<?xml version="1.0" encoding="UTF-8"?>
<svg width="1200pt" height="1200pt" version="1.1" viewBox="0 0 1200 1200" xmlns="http://www.w3.org/2000/svg">
 <path d="m111 473.88 34.801 60c3.5156 6.0547 9.0469 10.676 15.629 13.066 6.5781 2.3906 13.789 2.3984 20.371 0.015626l76.801-28.68c12.801 9.4805 26.699 17.375 41.398 23.52l13.559 81.121c1.1406 7.0039 4.7383 13.375 10.148 17.969 5.4062 4.5977 12.277 7.1172 19.371 7.1094h69.602c7.1133 0.011719 13.996-2.5039 19.426-7.0977 5.4297-4.5938 9.0469-10.969 10.215-17.98l13.68-81.121c14.449-6.0898 28.109-13.91 40.68-23.281l76.922 28.68c6.5781 2.4062 13.797 2.4141 20.383 0.023437 6.5859-2.3945 12.113-7.0352 15.617-13.102l34.801-60h-0.003906c3.6094-6.1289 4.9023-13.348 3.6484-20.348s-4.9766-13.32-10.488-17.812l-63.238-51.961c2.0781-15.531 2.0781-31.27 0-46.801l63.48-52.32c5.5117-4.4922 9.2305-10.812 10.484-17.812s-0.039062-14.219-3.6445-20.348l-34.801-60c-3.4844-6.0859-9.0117-10.738-15.602-13.137-6.5938-2.3945-13.82-2.375-20.398 0.058594l-76.922 28.68h0.003906c-12.621-9.6562-26.359-17.754-40.922-24.121l-13.68-81.121c-1.168-7.0117-4.7852-13.387-10.215-17.98-5.4297-4.5938-12.312-7.1094-19.426-7.0977h-69.602c-7.1172-0.035156-14.012 2.4727-19.445 7.0703-5.4336 4.5977-9.0508 10.984-10.191 18.008l-13.441 81.121c-14.438 6.1172-28.094 13.934-40.68 23.281l-76.922-28.68c-6.5781-2.4336-13.805-2.4531-20.395-0.058593-6.5938 2.3984-12.121 7.0508-15.605 13.137l-34.922 60h0.003907c-3.5703 6.1484-4.8281 13.371-3.5547 20.363 1.2773 6.9961 5.0039 13.305 10.516 17.797l63.359 52.32c-1.9219 15.543-1.9219 31.258 0 46.801l-63.84 52.559c-5.5117 4.4922-9.2383 10.805-10.516 17.797-1.2734 6.9961-0.015624 14.215 3.5547 20.363zm266.88-209.88c25.461 0 49.879 10.113 67.883 28.117 18.004 18.004 28.117 42.422 28.117 67.883s-10.113 49.879-28.117 67.883c-18.004 18.004-42.422 28.117-67.883 28.117-25.461 0-49.879-10.113-67.883-28.117-18-18.004-28.117-42.422-28.117-67.883s10.117-49.879 28.117-67.883c18.004-18.004 42.422-28.117 67.883-28.117zm710.88 399.72-40.68-70.441-0.003906 0.003906c-3.8008-6.5625-9.8047-11.559-16.945-14.109-7.1445-2.5469-14.957-2.4805-22.055 0.1875l-91.199 34.199c-15.266-11.609-31.965-21.207-49.68-28.559l-15.961-96c-1.2227-7.4805-5.0742-14.281-10.855-19.188-5.7812-4.9023-13.121-7.5859-20.703-7.5742h-81.359c-7.5039 0.035157-14.758 2.7109-20.488 7.5625-5.7266 4.8477-9.5625 11.562-10.832 18.961l-15.961 96c-17.715 7.3477-34.41 16.949-49.68 28.559l-91.199-34.199c-7.0977-2.6719-14.91-2.7383-22.051-0.1875-7.1406 2.5469-13.148 7.5469-16.949 14.105l-40.68 70.441c-3.7891 6.5586-5.1211 14.254-3.7578 21.707 1.3633 7.4531 5.332 14.18 11.199 18.973l75.238 62.039c-2.5586 18.953-2.5586 38.168 0 57.121l-75.48 62.281c-5.8672 4.793-9.8359 11.52-11.199 18.969-1.3633 7.4531-0.03125 15.148 3.7578 21.711l40.68 70.441 0.003906-0.003906c3.7812 6.5781 9.7891 11.594 16.934 14.145 7.1484 2.5508 14.969 2.4727 22.066-0.22266l91.199-34.199c15.266 11.609 31.965 21.207 49.68 28.559l15.961 96c1.1719 7.5273 5 14.383 10.785 19.336 5.7891 4.9492 13.156 7.668 20.773 7.6641h81.359c7.5391-0.042969 14.82-2.7539 20.555-7.6523 5.7344-4.8984 9.5469-11.668 10.766-19.109l15.961-96c17.715-7.3477 34.41-16.949 49.68-28.559l91.199 34.199c7.0977 2.6719 14.91 2.7383 22.051 0.1875 7.1406-2.5469 13.148-7.5469 16.949-14.105l40.68-70.441c3.7891-6.5586 5.1211-14.254 3.7578-21.707-1.3633-7.4531-5.332-14.18-11.199-18.973l-75.238-62.039c2.5586-18.953 2.5586-38.168 0-57.121l75.238-62.039c5.9688-4.7734 10.023-11.527 11.434-19.035 1.4062-7.5078 0.078125-15.273-3.75-21.887zm-308.76 243c-29.629 0-58.047-11.77-78.996-32.723-20.953-20.949-32.723-49.367-32.723-78.996s11.77-58.047 32.723-78.996c20.949-20.953 49.367-32.723 78.996-32.723s58.047 11.77 78.996 32.723c20.953 20.949 32.723 49.367 32.723 78.996s-11.77 58.047-32.723 78.996c-20.949 20.953-49.367 32.723-78.996 32.723z"/>
</svg>
