<?xml version="1.0" encoding="UTF-8"?>
<svg width="1200pt" height="1200pt" version="1.1" viewBox="0 0 1200 1200" xmlns="http://www.w3.org/2000/svg">
 <g>
  <path d="m160.8 480 439.2-339.6 439.2 339.6c20.398 15.602 52.801 12 68.398-8.3984 16.801-21.602 12-52.801-8.3984-68.398l-144-110.4v-186c0-14.398-12-25.199-25.199-25.199h-46.801c-14.398 0-25.199 12-25.199 25.199v109.2l-228-175.2c-18-13.199-42-13.199-60 0l-469.2 361.2c-10.801 8.3984-16.801 19.199-19.199 32.398-1.1992 13.199 2.3984 26.398 9.6016 36 16.797 22.801 47.996 26.402 69.598 9.6016z"/>
  <path d="m416.4 756c0 53.02-42.98 96-96 96-53.02 0-96-42.98-96-96s42.98-96 96-96c53.02 0 96 42.98 96 96"/>
  <path d="m1064.4 756-513.6-109.2c-26.398-6-52.801 10.801-58.801 38.398l-49.199 228h-276l0.003906-285.6c0-26.398-21.602-48-48-48-26.398 0-48 21.602-48 48v495.6c0 26.398 21.602 48 48 48 26.398 0 48-21.602 48-48v-115.2h865.2v115.2c0 26.398 21.602 48 48 48s48-21.602 48-48v-288c0-38.398-26.398-72-63.602-79.199z"/>
 </g>
</svg>
