<?xml version="1.0" encoding="UTF-8"?>
<svg width="1200pt" height="1200pt" version="1.1" viewBox="0 0 1200 1200" xmlns="http://www.w3.org/2000/svg">
 <path d="m834.27 320.39c-23.57-0.37109-51.93 14.145-75.57 37.785-38.699 34.832-76.719 73.883-113.36 113.36l-302.29-60.457-22.672 45.344 226.71 113.36-128.47 151.14c-29.461-9.6914-75.57-20.715-75.57 15.113 0 7.082 1.7695 14.375 7.5586 22.672l90.68 90.684c8.2969 5.7852 15.59 7.5586 22.672 7.5586 35.828 0 24.805-46.113 15.113-75.57l151.14-128.47 113.36 226.71 45.344-22.672-60.457-302.29c39.473-36.637 78.527-74.656 113.36-113.36 23.641-23.641 38.156-52.004 37.785-75.57-0.19922-12.695-4.207-24.785-12.336-33.008-8.2188-8.1289-20.309-12.133-33.008-12.336z"/>
</svg>
