<?xml version="1.0" encoding="UTF-8" standalone="no"?>
<svg
   width="1200pt"
   height="1200pt"
   version="1.1"
   viewBox="0 0 1200 1200"
   id="svg418"
   xmlns="http://www.w3.org/2000/svg"
   xmlns:svg="http://www.w3.org/2000/svg">
  <defs
     id="defs422" />
  <path
     d="m 1017.6971,101.46728 c -42.02426,-0.66164 -92.58883,25.21988 -134.73786,67.3689 -68.99853,62.10384 -136.78643,131.72997 -202.11563,202.11563 L 141.87453,263.15979 101.4514,344.00604 505.66483,546.12167 276.60877,815.59729 c -52.5276,-17.27931 -134.7378,-36.93388 -134.7378,26.94578 0,12.62688 3.15493,25.62996 13.47663,40.42313 l 161.67823,161.6853 c 14.793,10.3148 27.79625,13.4767 40.42313,13.4767 63.87967,0 44.22618,-82.21734 26.94578,-134.7378 L 653.87037,694.33433 855.986,1098.5477 936.83225,1058.1246 829.04022,519.15556 c 70.37853,-65.32207 140.01001,-133.10819 202.11568,-202.11563 42.1508,-42.15081 68.0303,-92.72073 67.3689,-134.73781 -0.3553,-22.6346 -7.501,-44.19051 -21.9946,-58.85174 -14.6537,-14.49345 -36.21,-21.63258 -58.8517,-21.99451 z"
     id="path416"
     style="stroke-width:1.78296" />
</svg>
