<?xml version="1.0" encoding="UTF-8"?>
<svg width="1200pt" height="1200pt" version="1.1" viewBox="0 0 1200 1200" xmlns="http://www.w3.org/2000/svg">
 <path d="m600 101.76c-132.14 0-258.87 52.492-352.31 145.93s-145.93 220.17-145.93 352.31 52.492 258.87 145.93 352.31 220.17 145.93 352.31 145.93 258.87-52.492 352.31-145.93 145.93-220.17 145.93-352.31c-0.25391-132.06-52.828-258.64-146.21-352.03-93.383-93.383-219.96-145.96-352.03-146.21zm0 132.48v-0.003907c89.332 0.13281 175.54 32.902 242.39 92.148 66.859 59.25 109.76 140.89 120.64 229.55 10.871 88.668-11.031 178.25-61.59 251.9l-509.28-509.28c61.141-42.047 133.64-64.48 207.84-64.32zm0 731.52c-96.961-0.14062-189.91-38.723-258.48-107.29s-107.14-161.52-107.29-258.48c-0.29297-74.297 22.336-146.88 64.801-207.84l508.8 509.28c-61.141 42.047-133.64 64.48-207.84 64.32z"/>
</svg>
