<?xml version="1.0" encoding="UTF-8"?>
<svg width="1200pt" height="1200pt" version="1.1" viewBox="0 0 1200 1200" xmlns="http://www.w3.org/2000/svg">
 <path d="m1e3 650h200v-100h-200zm-105.78 225.57 161.8 117.55 58.781-80.902-161.8-117.55zm-218.16 120.31 61.801 190.21 95.109-30.902-61.805-190.21zm-247.21-30.902-61.805 190.21 95.109 30.902 61.801-190.21zm-181.84-170.31-161.8 117.55 58.781 80.902 161.8-117.55zm-47.004-244.66h-200v100h200zm105.78-225.57-161.8-117.55-58.781 80.902 161.8 117.55zm218.16-120.31-61.801-190.21-95.109 30.902 61.805 190.21zm247.21 30.902 61.805-190.21-95.109-30.902-61.801 190.21zm181.84 170.31 161.8-117.55-58.781-80.902-161.8 117.55z"/>
</svg>
