<?xml version="1.0" encoding="UTF-8" standalone="no"?>
<svg
   width="753.16888pt"
   height="637.2959pt"
   version="1.1"
   viewBox="0 0 753.16888 637.2959"
   id="svg248"
   xmlns="http://www.w3.org/2000/svg"
   xmlns:svg="http://www.w3.org/2000/svg">
  <defs
     id="defs252" />
  <path
     d="M 731.909,21.273 C 717.725,7.089 700.682,0 680.761,0 L 72.421,0.004 C 52.503,0.004 35.456,7.0938 21.273,21.277 7.089,35.465 0,52.511 0,72.425 v 492.46 c 0,19.918 7.0898,36.949 21.273,51.145 14.184,14.188 31.234,21.266 51.148,21.266 h 608.33 c 19.922,0 36.965,-7.0781 51.148,-21.266 14.184,-14.195 21.266,-31.234 21.266,-51.145 l 0.004,-492.46 c 0,-19.918 -7.082,-36.969 -21.266,-51.152 z m -500.16,543.6 c 0,4.2344 -1.3594,7.6992 -4.0781,10.418 -2.7148,2.7109 -6.1836,4.0625 -10.41,4.0625 l -144.84,-0.004 c -4.2227,0 -7.6953,-1.3516 -10.41,-4.0625 -2.7148,-2.7148 -4.0703,-6.1836 -4.0703,-10.418 v -86.91 c 0,-4.2266 1.3555,-7.6953 4.0703,-10.398 2.7148,-2.7227 6.1875,-4.0781 10.41,-4.0781 h 144.84 c 4.2266,0 7.6992,1.3555 10.41,4.0781 2.7109,2.707 4.0703,6.1719 4.0703,10.398 z m 0,-173.8 c 0,4.2227 -1.3594,7.6953 -4.0781,10.406 -2.7148,2.7148 -6.1836,4.0703 -10.41,4.0703 h -144.84 c -4.2227,0 -7.6953,-1.3555 -10.41,-4.0703 -2.7148,-2.7109 -4.0703,-6.1836 -4.0703,-10.406 v -86.91 c 0,-4.2227 1.3555,-7.6953 4.0703,-10.41 2.7148,-2.7109 6.1875,-4.0664 10.41,-4.0664 h 144.84 c 4.2266,0 7.6953,1.3555 10.41,4.0664 2.7109,2.7148 4.0703,6.1875 4.0703,10.41 z m 0,-173.81 c 0,4.2266 -1.3594,7.6953 -4.0781,10.41 -2.7148,2.7109 -6.1836,4.0703 -10.41,4.0703 l -144.84,0.004 c -4.2227,0 -7.6953,-1.3594 -10.41,-4.0703 -2.7148,-2.7148 -4.0703,-6.1836 -4.0703,-10.41 v -86.906 c 0,-4.2266 1.3555,-7.6992 4.0703,-10.41 2.7148,-2.7148 6.1875,-4.0703 10.41,-4.0703 h 144.84 c 4.2266,0 7.6953,1.3555 10.41,4.0703 2.7109,2.7109 4.0703,6.1836 4.0703,10.41 z m 231.75,347.61 c 0,4.2344 -1.3555,7.6992 -4.0625,10.418 -2.7109,2.7109 -6.1836,4.0625 -10.418,4.0625 l -144.85,-0.004 c -4.2227,0 -7.6953,-1.3516 -10.41,-4.0625 -2.7148,-2.7148 -4.0703,-6.1836 -4.0703,-10.418 v -86.91 c 0,-4.2266 1.3555,-7.6953 4.0703,-10.398 2.7148,-2.7227 6.1875,-4.0781 10.41,-4.0781 h 144.84 c 4.2344,0 7.707,1.3555 10.418,4.0781 2.707,2.707 4.0625,6.1719 4.0625,10.398 l -0.004,86.914 z m 0,-173.8 c 0,4.2227 -1.3555,7.6953 -4.0625,10.406 -2.7109,2.7148 -6.1836,4.0703 -10.418,4.0703 h -144.85 c -4.2227,0 -7.6953,-1.3555 -10.41,-4.0703 -2.7148,-2.7109 -4.0703,-6.1836 -4.0703,-10.406 l -0.004,-86.91 c 0,-4.2227 1.3555,-7.6953 4.0703,-10.41 2.7148,-2.7109 6.1875,-4.0664 10.41,-4.0664 h 144.84 c 4.2344,0 7.707,1.3555 10.418,4.0664 2.707,2.7148 4.0625,6.1875 4.0625,10.41 v 86.91 z m 0,-173.81 c 0,4.2266 -1.3555,7.6953 -4.0625,10.41 -2.7109,2.7109 -6.1836,4.0703 -10.418,4.0703 l -144.85,0.004 c -4.2227,0 -7.6953,-1.3594 -10.41,-4.0703 -2.7148,-2.7148 -4.0703,-6.1836 -4.0703,-10.41 l -0.004,-86.906 c 0,-4.2266 1.3555,-7.6992 4.0703,-10.41 2.7148,-2.7148 6.1875,-4.0703 10.41,-4.0703 h 144.84 c 4.2344,0 7.707,1.3555 10.418,4.0703 2.707,2.7109 4.0625,6.1836 4.0625,10.41 v 86.902 z m 231.74,347.61 c 0,4.2344 -1.3555,7.6992 -4.0664,10.418 -2.7227,2.7109 -6.1953,4.0625 -10.418,4.0625 h -144.83 c -4.2344,0 -7.707,-1.3516 -10.418,-4.0625 -2.7109,-2.7148 -4.0547,-6.1836 -4.0547,-10.418 v -86.91 c 0,-4.2266 1.3438,-7.6953 4.0547,-10.398 2.7109,-2.7227 6.1836,-4.0781 10.418,-4.0781 h 144.83 c 4.2227,0 7.6953,1.3555 10.418,4.0781 2.7109,2.707 4.0664,6.1719 4.0664,10.398 z m 0,-173.8 c 0,4.2227 -1.3555,7.6953 -4.0664,10.406 -2.7227,2.7148 -6.1953,4.0703 -10.418,4.0703 h -144.83 c -4.2344,0 -7.707,-1.3555 -10.418,-4.0703 -2.7109,-2.7109 -4.0547,-6.1836 -4.0547,-10.406 v -86.91 c 0,-4.2227 1.3438,-7.6953 4.0547,-10.41 2.7109,-2.7109 6.1836,-4.0664 10.418,-4.0664 h 144.83 c 4.2227,0 7.6953,1.3555 10.418,4.0664 2.7109,2.7148 4.0664,6.1875 4.0664,10.41 z m 0,-173.81 c 0,4.2266 -1.3555,7.6953 -4.0664,10.41 -2.7227,2.7109 -6.1953,4.0703 -10.418,4.0703 h -144.83 c -4.2344,0 -7.707,-1.3594 -10.418,-4.0703 -2.7109,-2.7148 -4.0547,-6.1836 -4.0547,-10.41 v -86.902 c 0,-4.2266 1.3438,-7.6992 4.0547,-10.41 2.7109,-2.7148 6.1836,-4.0703 10.418,-4.0703 h 144.83 c 4.2227,0 7.6953,1.3555 10.418,4.0703 2.7109,2.7109 4.0664,6.1836 4.0664,10.41 z"
     id="path246" />
</svg>
